<svg width="45" height="46" viewBox="0 0 45 46" fill="none" xmlns="http://www.w3.org/2000/svg">
<path d="M30.4373 29.7043C30.4418 30.8091 30.1467 31.8035 29.6242 32.6815C29.5796 32.7582 29.5289 32.8325 29.481 32.9075C29.4506 32.9543 29.4209 33.0009 29.3889 33.0468C29.0012 33.6199 28.5219 34.1345 27.963 34.5668C27.9487 34.5778 27.9358 34.59 27.9216 34.6013C27.9195 34.6034 27.9176 34.6042 27.9163 34.6053C27.9082 34.611 27.9001 34.6175 27.892 34.6236C27.2003 35.1716 26.441 35.5105 25.7339 35.7215C25.2461 35.8745 24.6186 35.978 24.0893 36.03C27.1394 35.7 29.5126 33.1847 29.5126 30.1285V30.0441C29.5126 26.7638 26.7798 24.1032 23.4086 24.1032H22.5226C22.4585 24.1032 22.3968 24.1105 22.3335 24.1125C25.4064 24.2107 28.1663 26.6602 28.1663 29.6755V30.3322C28.1663 33.41 25.3053 35.905 22.1434 35.905C22.0623 35.905 21.8391 35.9071 21.6345 35.8888C21.421 35.8697 21.2262 35.8299 21.1482 35.8157C20.4026 35.687 19.7061 35.42 19.0893 35.0392C17.499 33.9844 16.4522 32.2163 16.4242 30.2097C16.4242 30.0664 16.4242 29.9244 16.4239 29.7815C16.4239 29.7511 16.4186 29.7206 16.4186 29.6889C16.4186 29.6585 16.423 29.6281 16.4239 29.5976C16.4182 27.3462 16.4214 25.0943 16.4214 22.8421C16.4214 21.1723 16.4214 19.503 16.4222 17.8331C16.4226 17.8352 16.423 17.8372 16.4239 17.8392V16.2425H16.4271C16.4271 16.2181 16.4239 16.1951 16.4239 16.171C16.4239 13.1335 18.8595 10.6717 21.8638 10.6717C24.8686 10.6717 27.3042 13.1335 27.3042 16.171C27.3042 17.9886 26.4291 19.595 25.0845 20.5955C25.9027 20.2782 26.6544 19.8017 27.2673 19.1717C28.1972 18.2163 28.7589 17.0133 28.778 15.7043C28.7553 12.9362 26.3598 10.5005 22.9747 10.022C22.9276 10.0123 22.4783 9.95096 22.4783 9.95096C22.4783 9.95096 22.5855 9.94409 22.7381 9.93713L22.734 9.9363C22.7924 9.9335 22.8514 9.93111 22.9106 9.92903C22.9759 9.92778 23.0421 9.92622 23.1086 9.92622C26.7908 9.92622 29.7764 12.5725 29.7764 15.8366C29.7764 15.8448 29.776 15.8537 29.776 15.8618C29.7757 15.8679 29.7757 15.8744 29.7753 15.8804C29.7712 16.415 29.6859 16.9325 29.5317 17.4249C29.5264 17.4431 29.5203 17.4601 29.5155 17.4784C29.0917 18.7801 28.1773 19.8971 26.9609 20.6617C26.9507 20.6675 26.941 20.6735 26.9305 20.6788C26.6662 20.8427 26.2867 21.0011 25.8849 21.1419C24.8256 21.5141 23.7139 21.715 22.592 21.7657C21.5655 21.8124 20.302 21.8696 20.2947 21.8696V21.8729H20.2931V23.1319L23.2252 23.2581C23.5896 23.274 23.9529 23.3126 24.3125 23.3746L24.319 23.3754C25.7266 23.552 27.1119 24.1138 28.1201 24.9434C29.2237 25.7734 29.9668 26.8762 30.2785 28.3009C30.3244 28.5107 30.3569 28.7168 30.3828 28.921C30.393 28.9989 30.4011 29.076 30.4084 29.1543C30.423 29.3106 30.4312 29.4656 30.434 29.6179C30.434 29.641 30.4377 29.6646 30.4377 29.6889C30.4377 29.6942 30.4373 29.6991 30.4373 29.7043ZM13.9 27.205C13.9 25.4872 13.8912 25.2981 13.8927 24.7769C13.8944 24.4421 13.896 23.9705 13.896 22.8693L13.8955 21.0916C13.8944 20.5684 13.8968 20.3298 13.8968 18.7861C13.8968 11.6828 18.3128 10.533 18.3063 10.5846C15.94 11.9617 14.7365 14.7034 14.7365 18.787C14.7337 20.3298 14.7342 20.568 14.7354 21.0908L14.7357 22.8693C14.7357 23.9725 14.7337 24.4449 14.7321 24.7798C14.7301 25.2993 14.7297 25.4872 14.7395 27.2009C14.7561 30.1516 15.1781 33.7822 18.316 35.7053C18.316 35.7053 13.9 33.8622 13.9 27.205ZM26.443 22.6643C25.3451 22.5085 24.377 22.4671 24.377 22.4671C24.377 22.4671 24.7817 22.4294 24.9765 22.42C24.981 22.42 24.9863 22.42 24.9908 22.4196C25.8634 22.3774 26.7165 22.1456 27.5068 21.7734C30.089 20.557 31.8177 18.4054 31.8627 15.9454C31.8485 15.3898 31.7596 14.8292 31.5883 14.2817C31.3176 13.4164 30.9085 12.6891 30.395 12.0689C28.7606 10.1539 25.9185 8.8827 22.6829 8.86722C22.6521 8.86722 22.6208 8.86681 22.5899 8.86681C22.5128 8.86722 22.4362 8.86806 22.3591 8.86972C21.8577 8.88063 21.3537 8.91762 20.8463 8.97851C19.6335 9.12377 18.4715 9.52401 17.4008 10.1194C13.8295 11.9349 11.3848 15.5595 11.3848 19.753V26.5149C11.3848 31.004 14.1842 34.8404 18.1695 36.5037C18.105 36.4752 18.0437 36.4407 17.98 36.4115C18.2938 36.5584 18.6123 36.6964 18.9403 36.8093C21.1089 37.5602 23.0486 37.5013 25.255 37.1056C26.2701 36.9238 27.4958 36.3616 28.3818 35.8603C29.1389 35.4334 32.5767 33.143 32.4488 29.3655C32.3287 25.829 29.8443 23.19 26.443 22.6643Z" fill="#61C4BF"/>
<path d="M22.5 44.2182C10.8 44.2182 1.28136 34.6995 1.28136 23C1.28136 11.3 10.8 1.78136 22.5 1.78136C34.1995 1.78136 43.7182 11.3 43.7182 23C43.7182 34.6995 34.1995 44.2182 22.5 44.2182ZM22.5 0.5C10.093 0.5 0 10.5938 0 23C0 35.4069 10.093 45.5 22.5 45.5C34.9065 45.5 45 35.4069 45 23C45 10.5938 34.9065 0.5 22.5 0.5Z" fill="#61C4BF"/>
</svg>
